<?xml version="1.0" encoding="utf-8"?>
<svg width="354" height="326" viewBox="0 0 354 326" fill="none" xmlns="http://www.w3.org/2000/svg">
  <g clip-path="url(#clip0)">
    <path d="M196.679 195.935C196.679 195.935 127.206 190.883 125.356 261.741L118.449 261.282C118.449 261.282 112.58 187.807 177.81 175.684L196.679 195.935Z"
          fill="#1E2E40"/>
    <path
      d="M41.125 278.838C85.499 291.971 118.859 300.191 144.003 286.736C182.78 265.978 215.958 190.3 219.615 181.667L195.78 171.15C186.751 192.09 157.951 249.218 131.904 263.361C115.428 272.179 85.6345 264.51 48.3928 253.489L41.125 278.838ZM195.78 171.15L207.697 176.385L195.78 171.15Z"
      fill="#3D82FF"/>
    <path d="M87.8712 126.332L138.158 151.238L61.6854 311.025L11.3984 286.118L87.8712 126.332Z" fill="#1E2E40"/>
    <path
      d="M153.573 72.6486L208.239 39.2174C214.83 35.2221 222.64 30.6759 223.632 30.3085C224.625 29.9411 231.532 28.1961 239.026 26.3591L344.973 0L354.001 37.059L250.673 62.7295C241.741 65.1919 233.155 68.8028 225.122 73.4751L172.893 105.62C169.717 107.551 165.918 108.128 162.325 107.225C158.732 106.322 155.636 104.013 153.708 100.799L148.787 92.441C147.807 90.8266 147.153 89.0296 146.862 87.1552C146.572 85.2807 146.652 83.3661 147.098 81.5235C147.544 79.6808 148.346 77.9469 149.457 76.4231C150.57 74.8993 151.968 73.6161 153.573 72.6486Z"
      fill="#BEBBBB"/>
    <path
      d="M218.303 206.756L79.3577 137.92L77.6875 133.006L98.5429 89.4722L176.367 40.749L206.296 91.4928L188.42 102.56L185.034 117.668L213.564 151.65L228.911 172.316L218.303 206.756Z"
      fill="#3D82FF"/>
    <path
      d="M1.57984 283.064C-0.241291 286.882 -0.498836 291.28 0.863688 295.293C2.22621 299.304 5.09753 302.602 8.84764 304.463L49.0237 324.394C50.8906 325.306 52.9162 325.835 54.9845 325.95C57.0527 326.066 59.123 325.765 61.0768 325.066C63.0308 324.366 64.8298 323.281 66.3712 321.874C67.9126 320.467 69.166 318.763 70.0596 316.862L71.5042 313.877C73.3272 310.051 73.586 305.647 72.2238 301.628C70.8617 297.609 67.9896 294.301 64.2363 292.432L24.0603 272.547C22.1906 271.636 20.1625 271.109 18.0924 270.997C16.0222 270.885 13.9505 271.19 11.9963 271.894C10.042 272.598 8.24355 273.687 6.70397 275.1C5.16438 276.512 3.91395 278.22 3.02437 280.124L1.57984 283.064Z"
      fill="#1E2E40"/>
    <path d="M196.679 195.935C196.679 195.935 127.206 190.883 125.356 261.741L118.449 261.282C118.449 261.282 112.58 187.807 177.81 175.684L196.679 195.935Z"
          fill="#1E2E40"/>
    <path
      d="M41.125 278.838C85.499 291.971 118.859 300.191 144.003 286.736C182.78 265.978 215.958 190.3 219.615 181.667L195.78 171.15C186.751 192.09 157.951 249.218 131.904 263.361C115.428 272.179 85.6345 264.51 48.3928 253.489L41.125 278.838ZM195.78 171.15L207.697 176.385L195.78 171.15Z"
      fill="#3D82FF"/>
    <path d="M87.8712 126.332L138.158 151.238L61.6854 311.025L11.3984 286.118L87.8712 126.332Z" fill="#1E2E40"/>
    <path
      d="M153.573 72.6486L208.239 39.2174C214.83 35.2221 222.64 30.6759 223.632 30.3085C224.625 29.9411 231.532 28.1961 239.026 26.3591L344.973 0L354.001 37.059L250.673 62.7295C241.741 65.1919 233.155 68.8028 225.122 73.4751L172.893 105.62C169.717 107.551 165.918 108.128 162.325 107.225C158.732 106.322 155.636 104.013 153.708 100.799L148.787 92.441C147.807 90.8266 147.153 89.0296 146.862 87.1552C146.572 85.2807 146.652 83.3661 147.098 81.5235C147.544 79.6808 148.346 77.9469 149.457 76.4231C150.57 74.8993 151.968 73.6161 153.573 72.6486Z"
      fill="#BEBBBB"/>
    <path
      d="M218.303 206.756L79.3577 137.92L77.6875 133.006L98.5429 89.4722L176.367 40.749L206.296 91.4928L188.42 102.56L185.034 117.668L213.564 151.65L228.911 172.316L218.303 206.756Z"
      fill="#3D82FF"/>
    <path
      d="M1.57984 283.064C-0.241291 286.882 -0.498836 291.28 0.863688 295.293C2.22621 299.304 5.09753 302.602 8.84764 304.463L49.0237 324.394C50.8906 325.306 52.9162 325.835 54.9845 325.95C57.0527 326.066 59.123 325.765 61.0768 325.066C63.0308 324.366 64.8298 323.281 66.3712 321.874C67.9126 320.467 69.166 318.763 70.0596 316.862L71.5042 313.877C73.3272 310.051 73.586 305.647 72.2238 301.628C70.8617 297.609 67.9896 294.301 64.2363 292.432L24.0603 272.547C22.1906 271.636 20.1625 271.109 18.0924 270.997C16.0222 270.885 13.9505 271.19 11.9963 271.894C10.042 272.598 8.24355 273.687 6.70397 275.1C5.16438 276.512 3.91395 278.22 3.02437 280.124L1.57984 283.064Z"
      fill="#1E2E40"/>
  </g>
  <defs>
    <clipPath id="clip0">
      <rect width="354" height="326" fill="white"/>
    </clipPath>
  </defs>
</svg>