<?xml version="1.0"?>
<svg xmlns="http://www.w3.org/2000/svg" viewBox="0 0 64 64">
  <g id="RFID">
    <path
      d="M55.83,31.62,42,23.43V5a3.009,3.009,0,0,0-3-3H15a3.009,3.009,0,0,0-3,3V39a3.009,3.009,0,0,0,3,3H25.03a4.332,4.332,0,0,0,.43.53L33,51.37V53a9.014,9.014,0,0,0,9,9H60a2.006,2.006,0,0,0,2-2V42.68A12.931,12.931,0,0,0,55.83,31.62ZM24.05,39.05a5.014,5.014,0,0,0,.09.95H15a1,1,0,0,1-1-1V5a1,1,0,0,1,1-1H39a1,1,0,0,1,1,1V39a1,1,0,0,1-1,1H37.19l-4.6-4.49a5,5,0,0,0-8.54,3.54ZM60,60H42a7.008,7.008,0,0,1-7-7V51a.969.969,0,0,0-.24-.65l-7.83-9.18a2.994,2.994,0,0,1,0-4.24,3.068,3.068,0,0,1,4.25.01L44.3,49.72l1.4-1.44-6.48-6.3A3,3,0,0,0,42,39V25.75l12.79,7.58A10.941,10.941,0,0,1,60,42.68Z"/>
    <path d="M21,26H17a1,1,0,0,0-1,1v4a1,1,0,0,0,1,1h4a1,1,0,0,0,1-1V27A1,1,0,0,0,21,26Zm-1,4H18V28h2Z"/>
    <path d="M25,32h4a1,1,0,0,0,1-1V27a1,1,0,0,0-1-1H25a1,1,0,0,0-1,1v4A1,1,0,0,0,25,32Zm1-4h2v2H26Z"/>
    <path d="M33,26a1,1,0,0,0-1,1v4a1,1,0,0,0,1,1h4a1,1,0,0,0,1-1V27a1,1,0,0,0-1-1Zm3,4H34V28h2Z"/>
    <path d="M27,8a12.95,12.95,0,0,1,9.194,3.809L37.6,10.392a15,15,0,0,0-21.21,0l1.411,1.417A12.95,12.95,0,0,1,27,8Z"/>
    <path d="M34.777,13.223a10.994,10.994,0,0,0-15.554,0l1.414,1.414a9,9,0,0,1,12.726,0Z"/>
    <path d="M30.53,17.464l1.421-1.408a6.989,6.989,0,0,0-9.9,0l1.421,1.408a4.988,4.988,0,0,1,7.06,0Z"/>
    <path d="M24,21a3,3,0,1,0,3-3A3,3,0,0,0,24,21Zm4,0a1,1,0,1,1-1-1A1,1,0,0,1,28,21Z"/>
  </g>
</svg>
